name C:/MyDriveSym/Projects/mobilecap/Data\Session20210819_0002\mocap\ForceDataProcessed\walking1_forces.mot
datacolumns 19
datarows 12
range 0.32700000 0.33250000
endheader 
time	R_ground_force_vx	R_ground_force_vy	R_ground_force_vz	R_ground_force_px	R_ground_force_py	R_ground_force_pz	R_ground_torque_x	R_ground_torque_y	R_ground_torque_z	L_ground_force_vx	L_ground_force_vy	L_ground_force_vz	L_ground_force_px	L_ground_force_py	L_ground_force_pz	L_ground_torque_x	L_ground_torque_y	L_ground_torque_z	
          0.32700000	        -16.46473300	        464.90931500	        -21.00753900	          0.22594900	          0.00600000	         -0.17688700	          0.00000000	         -1.75626900	          0.00000000	          0.00000000	          0.00000000	          0.00000000	          0.70549100	          0.00000000	         -0.24113100	          0.00000000	          0.00000000	          0.00000000	
          0.32750000	        -16.32449200	        465.19235700	        -21.02235000	          0.22613600	          0.00600000	         -0.17685400	          0.00000000	         -1.76741000	          0.00000000	          0.00000000	          0.00000000	          0.00000000	          0.70549100	          0.00000000	         -0.24113100	          0.00000000	          0.00000000	          0.00000000	
          0.32800000	        -16.18430700	        465.48251400	        -21.03758700	          0.22632400	          0.00600000	         -0.17682000	          0.00000000	         -1.77856400	          0.00000000	          0.00000000	          0.00000000	          0.00000000	          0.70549100	          0.00000000	         -0.24113100	          0.00000000	          0.00000000	          0.00000000	
          0.32850000	        -16.04416600	        465.77975800	        -21.05325000	          0.22651100	          0.00600000	         -0.17678800	          0.00000000	         -1.78973100	          0.00000000	          0.00000000	          0.00000000	          0.00000000	          0.70549100	          0.00000000	         -0.24113100	          0.00000000	          0.00000000	          0.00000000	
          0.32900000	        -15.90405400	        466.08406000	        -21.06933700	          0.22669800	          0.00600000	         -0.17675500	          0.00000000	         -1.80091100	          0.00000000	          0.00000000	          0.00000000	          0.00000000	          0.70549100	          0.00000000	         -0.24113100	          0.00000000	          0.00000000	          0.00000000	
          0.32950000	        -15.76396100	        466.39539000	        -21.08584800	          0.22688500	          0.00600000	         -0.17672200	          0.00000000	         -1.81210300	          0.00000000	          0.00000000	          0.00000000	          0.00000000	          0.70549100	          0.00000000	         -0.24113100	          0.00000000	          0.00000000	          0.00000000	
          0.33000000	        -15.62387200	        466.71371900	        -21.10278300	          0.22707100	          0.00600000	         -0.17669000	          0.00000000	         -1.82330900	          0.00000000	          0.00000000	          0.00000000	          0.00000000	          0.70549100	          0.00000000	         -0.24113100	          0.00000000	          0.00000000	          0.00000000	
          0.33050000	        -15.48377500	        467.03901700	        -21.12014100	          0.22725700	          0.00600000	         -0.17665800	          0.00000000	         -1.83452700	          0.00000000	          0.00000000	          0.00000000	          0.00000000	          0.70549100	          0.00000000	         -0.24113100	          0.00000000	          0.00000000	          0.00000000	
          0.33100000	        -15.34365700	        467.37125500	        -21.13792200	          0.22744300	          0.00600000	         -0.17662700	          0.00000000	         -1.84575800	          0.00000000	          0.00000000	          0.00000000	          0.00000000	          0.70549100	          0.00000000	         -0.24113100	          0.00000000	          0.00000000	          0.00000000	
          0.33150000	        -15.20350600	        467.71040000	        -21.15612500	          0.22762800	          0.00600000	         -0.17659500	          0.00000000	         -1.85700100	          0.00000000	          0.00000000	          0.00000000	          0.00000000	          0.70549100	          0.00000000	         -0.24113100	          0.00000000	          0.00000000	          0.00000000	
          0.33200000	        -15.06330900	        468.05642300	        -21.17475000	          0.22781300	          0.00600000	         -0.17656400	          0.00000000	         -1.86825700	          0.00000000	          0.00000000	          0.00000000	          0.00000000	          0.70549100	          0.00000000	         -0.24113100	          0.00000000	          0.00000000	          0.00000000	
          0.33250000	        -14.92305400	        468.40929400	        -21.19379600	          0.22799800	          0.00600000	         -0.17653300	          0.00000000	         -1.87952400	          0.00000000	          0.00000000	          0.00000000	          0.00000000	          0.70549100	          0.00000000	         -0.24113100	          0.00000000	          0.00000000	          0.00000000	
